<?xml version="1.0" encoding="UTF-8"?>
<svg width="792px" height="95px" viewBox="0 0 792 95" version="1.1" xmlns="http://www.w3.org/2000/svg" xmlns:xlink="http://www.w3.org/1999/xlink">
    <!-- Generator: Sketch 52.1 (67048) - http://www.bohemiancoding.com/sketch -->
    <title>Icons - SVG for dev</title>
    <desc>Created with Sketch.</desc>
    <defs>
        <path d="M24.0112345,22.597021 L46.022469,0.585786438 L47.4366826,2 L25.4254481,24.0112345 L47.4253233,46.0111097 L46.0111097,47.4253233 L24.0112345,25.4254481 L2,47.4366826 L0.585786438,46.022469 L22.597021,24.0112345 L0.574427136,1.9886407 L1.9886407,0.574427136 L24.0112345,22.597021 Z" id="path-1"></path>
        <path d="M18,34 C26.836556,34 34,26.836556 34,18 C34,9.163444 26.836556,2 18,2 C9.163444,2 2,9.163444 2,18 C2,26.836556 9.163444,34 18,34 Z M31.4154934,30.0012799 L47.4142136,46 L46,47.4142136 L30.0012799,31.4154934 C26.8165878,34.2664142 22.6107442,36 18,36 C8.0588745,36 0,27.9411255 0,18 C0,8.0588745 8.0588745,0 18,0 C27.9411255,0 36,8.0588745 36,18 C36,22.6107442 34.2664142,26.8165878 31.4154934,30.0012799 Z" id="path-3"></path>
        <path d="M18,32 C25.7319865,32 32,25.7319865 32,18 C32,10.2680135 25.7319865,4 18,4 C10.2680135,4 4,10.2680135 4,18 C4,25.7319865 10.2680135,32 18,32 Z M32.0637987,29.2353716 L47.8284271,45 L45,47.8284271 L29.2353716,32.0637987 C26.15603,34.5270543 22.2500274,36 18,36 C8.0588745,36 0,27.9411255 0,18 C0,8.0588745 8.0588745,0 18,0 C27.9411255,0 36,8.0588745 36,18 C36,22.2500274 34.5270543,26.15603 32.0637987,29.2353716 Z" id="path-5"></path>
        <path d="M18,47.9985352 C8,40 0,28.0078125 0,18 C0,8.0588745 8.0588745,0 18,0 C27.9411255,0 36,8.0588745 36,18 C36,27.9411255 28,40 18,47.9985352 Z M34,18 C34,9.163444 26.836556,2 18,2 C9.163444,2 2,9.163444 2,18 C2,26.4753373 8.53138105,37.3763329 17.9997747,45.4073824 C27.4423094,37.3927421 34,26.4333263 34,18 Z M18,26 C13.581722,26 10,22.418278 10,18 C10,13.581722 13.581722,10 18,10 C22.418278,10 26,13.581722 26,18 C26,22.418278 22.418278,26 18,26 Z M18,24 C21.3137085,24 24,21.3137085 24,18 C24,14.6862915 21.3137085,12 18,12 C14.6862915,12 12,14.6862915 12,18 C12,21.3137085 14.6862915,24 18,24 Z" id="path-7"></path>
        <path d="M20,22 C25.5228475,22 30,17.5228475 30,12 C30,6.4771525 25.5228475,2 20,2 C14.4771525,2 10,6.4771525 10,12 C10,17.5228475 14.4771525,22 20,22 Z M20,24 C13.372583,24 8,18.627417 8,12 C8,5.372583 13.372583,0 20,0 C26.627417,0 32,5.372583 32,12 C32,18.627417 26.627417,24 20,24 Z M2,48 L0,48 C0,36.954305 8.954305,28 20,28 C31.045695,28 40,36.954305 40,48 L38,48 C38,38.0588745 29.9411255,30 20,30 C10.0588745,30 2,38.0588745 2,48 Z" id="path-9"></path>
        <path d="M30,12 L40,12 L40,48 L0,48 L0,12 L10,12 L10,10 C10,4.4771525 14.4771525,0 20,0 C25.5228475,0 30,4.4771525 30,10 L30,12 Z M28,12 L28,10 C28,5.581722 24.418278,2 20,2 C15.581722,2 12,5.581722 12,10 L12,12 L28,12 Z M30,14 L30,20 L28,20 L28,14 L12,14 L12,20 L10,20 L10,14 L2,14 L2,46 L38,46 L38,14 L30,14 Z" id="path-11"></path>
    </defs>
    <g id="Icons---SVG-for-dev" stroke="none" stroke-width="1" fill="none" fill-rule="evenodd">
        <rect fill="#FFFFFF" x="0" y="0" width="792" height="95"></rect>
        <g id="icon/close" transform="translate(25.000000, 23.000000)">
            <g id="Color_Block/Black-Copy-28">
                <mask id="mask-2" fill="white">
                    <use xlink:href="#path-1"></use>
                </mask>
                <use id="Mask" fill="#000000" fill-rule="nonzero" xlink:href="#path-1"></use>
                <g id="Color_Block/Black" mask="url(#mask-2)" fill="#000000">
                    <rect id="Rectangle" x="0" y="0" width="48" height="48"></rect>
                </g>
            </g>
        </g>
        <g id="icon/search" transform="translate(95.000000, 23.000000)">
            <g id="Color_Block/Black-Copy">
                <mask id="mask-4" fill="white">
                    <use xlink:href="#path-3"></use>
                </mask>
                <use id="Mask" fill="#000000" fill-rule="nonzero" xlink:href="#path-3"></use>
                <g id="Color_Block/Black" mask="url(#mask-4)" fill="#000000">
                    <rect id="Rectangle" x="0" y="0" width="48" height="48"></rect>
                </g>
            </g>
        </g>
        <g id="hover/search" transform="translate(165.000000, 23.000000)">
            <circle id="Oval-2" fill="#81D8D0" fill-rule="nonzero" cx="18.3132324" cy="17.6867676" r="15.6867676"></circle>
            <g id="Color_Block/Black-Copy" stroke-width="1" fill-rule="evenodd">
                <mask id="mask-6" fill="white">
                    <use xlink:href="#path-5"></use>
                </mask>
                <use id="Mask" fill="#000000" fill-rule="nonzero" xlink:href="#path-5"></use>
                <g id="Color_Block/Black" mask="url(#mask-6)" fill="#000000">
                    <rect id="Rectangle" x="0" y="0" width="48" height="48"></rect>
                </g>
            </g>
        </g>
        <g id="icon/location/option1" transform="translate(235.000000, 23.000000)">
            <g id="Color_Block/Black-Copy-7" transform="translate(6.000000, 0.000000)">
                <mask id="mask-8" fill="white">
                    <use xlink:href="#path-7"></use>
                </mask>
                <use id="Mask" fill="#000000" fill-rule="nonzero" xlink:href="#path-7"></use>
                <g id="Color_Block/Black" mask="url(#mask-8)" fill="#000000">
                    <g transform="translate(-6.000000, 0.000000)" id="Rectangle">
                        <rect x="0" y="0" width="48" height="48"></rect>
                    </g>
                </g>
            </g>
        </g>
        <g id="hover/location" transform="translate(305.000000, 23.000000)" fill-rule="nonzero">
            <path d="M14.652832,4.01171875 L32.4414063,3.62451172 C37.8316275,10.8160764 39.9799022,17.1905881 38.8862305,22.7480469 C37.7925587,28.3055057 32.8872853,35.9405968 24.1704102,45.6533203 C14.5257797,34.6158002 9.12441253,26.5635541 7.96630859,21.496582 C6.80820466,16.4296099 9.0370458,10.6013222 14.652832,4.01171875 Z" id="Rectangle-14" fill="#81D8D0"></path>
            <circle id="Oval" fill="#FFFFFF" cx="24" cy="18" r="6"></circle>
            <path d="M24,47.9985352 C14,40 6,28.0078125 6,18 C6,8.0588745 14.0588745,0 24,0 C33.9411255,0 42,8.0588745 42,18 C42,27.9411255 34,40 24,47.9985352 Z M38,18 C38,10.2680135 31.7319865,4 24,4 C16.2680135,4 10,10.2680135 10,18 C10,25.4241404 15.6450747,35.1962964 23.9991157,42.7483615 C32.3319567,35.2058038 38,25.3842185 38,18 Z M24,26 C19.581722,26 16,22.418278 16,18 C16,13.581722 19.581722,10 24,10 C28.418278,10 32,13.581722 32,18 C32,22.418278 28.418278,26 24,26 Z M24,22 C26.209139,22 28,20.209139 28,18 C28,15.790861 26.209139,14 24,14 C21.790861,14 20,15.790861 20,18 C20,20.209139 21.790861,22 24,22 Z" id="Combined-Shape" fill="#000000"></path>
        </g>
        <g id="icon/mytiffany" transform="translate(375.000000, 23.000000)">
            <g id="Color_Block/Black-Copy-9" transform="translate(4.000000, 0.000000)">
                <mask id="mask-10" fill="white">
                    <use xlink:href="#path-9"></use>
                </mask>
                <use id="Mask" fill="#000000" fill-rule="nonzero" xlink:href="#path-9"></use>
                <g id="Color_Block/Black" mask="url(#mask-10)" fill="#000000">
                    <g transform="translate(-4.000000, 0.000000)" id="Rectangle">
                        <rect x="0" y="0" width="48" height="48"></rect>
                    </g>
                </g>
            </g>
        </g>
        <g id="hover/mytiffany" transform="translate(445.000000, 23.000000)" fill-rule="nonzero">
            <path d="M42,48 C42,38.0588745 33.9411255,30 24,30 C14.0588745,30 6,38.0588745 6,48" id="Oval-4" fill="#81D8D0"></path>
            <circle id="Oval-3" fill="#81D8D0" cx="24" cy="12" r="10"></circle>
            <path d="M24,24 C17.372583,24 12,18.627417 12,12 C12,5.372583 17.372583,0 24,0 C30.627417,0 36,5.372583 36,12 C36,18.627417 30.627417,24 24,24 Z M24,20 C28.418278,20 32,16.418278 32,12 C32,7.581722 28.418278,4 24,4 C19.581722,4 16,7.581722 16,12 C16,16.418278 19.581722,20 24,20 Z M8,48 L4,48 C4,36.954305 12.954305,28 24,28 C35.045695,28 44,36.954305 44,48 L40,48 C40,39.163444 32.836556,32 24,32 C15.163444,32 8,39.163444 8,48 Z" id="Combined-Shape" fill="#000000"></path>
        </g>
        <g id="icon/wishlist" transform="translate(515.000000, 23.000000)" fill="#000000" fill-rule="nonzero">
            <path d="M31.8855628,8.6440608 C31.2415021,4.87157136 27.9560968,2 24,2 C20.0464806,2 16.7627791,4.86783088 16.1156994,8.63668855 C18.3410959,8.95926485 20.6169772,10.14111 22.6977832,12.4055176 L23.0718067,12.8267591 C23.487875,13.332381 23.7971789,13.724682 23.9997183,14.0036621 C24.2026556,13.7250132 24.5125184,13.333176 24.9293066,12.8281506 L25.3039619,12.4073699 C27.3861064,10.1476832 29.6614373,8.96728673 31.8855628,8.6440608 Z M33.9001345,8.58128131 C39.3457729,9.03085946 43.9994367,14.4512089 43.9994367,21.3325672 C43.9994367,32.3781066 33.9995775,42.9979115 23.9997183,47.9966204 C13.9896868,42.9914012 4,32.3781066 4,21.3325672 C4,14.453203 8.65644172,9.02808199 14.100763,8.57497586 C14.7924214,3.7271121 18.9609539,0 24,0 C29.0412306,0 33.2111927,3.7303443 33.9001345,8.58128131 Z M23.9998151,45.7458888 C34.1712203,40.3251025 41.9994367,30.3412005 41.9994367,21.3325672 C41.9994367,11.1771748 31.8937699,6.56176699 25.6164077,15.1810811 L23.9971707,17.4044215 L22.3812667,15.1786575 C16.1176208,6.55104251 6,11.174696 6,21.3325672 C6,30.3434648 13.8217071,40.3207726 23.9998151,45.7458888 Z" id="Combined-Shape"></path>
        </g>
        <g id="hover/wishlist" transform="translate(585.000000, 23.000000)" fill-rule="nonzero">
            <path d="M7.77294922,12.5537109 C12.8673503,8.20670573 18.1669922,9.58463542 23.671875,16.6875 C27.8004557,10.3483073 32.4142253,8.59261068 37.5131836,11.4204102 C41.2869466,15.7963867 42.3694661,20.8504232 40.7607422,26.5825195 C39.1520182,32.3146159 33.4557292,38.7565104 23.671875,45.9082031 C14.8828917,38.4705388 9.58324973,32.7932928 7.77294922,28.8764648 C5.96264871,24.9596369 5.96264871,19.518719 7.77294922,12.5537109 Z" id="Rectangle" fill="#81D8D0"></path>
            <path d="M39.9994367,21.3325672 C39.9994367,12.9699532 32.2714371,9.44046126 27.233097,16.3585002 L23.994623,20.8051809 L20.762815,16.3536529 C15.7375323,9.431773 8,12.9677494 8,21.3325672 C8,29.2269723 14.8773038,38.2531226 23.9998478,43.4616663 C33.1163959,38.256557 39.9994367,29.2245428 39.9994367,21.3325672 Z M29.9400144,9.14830232 C29.5264483,6.23796744 27.0245768,4 24,4 C20.9781165,4 18.4780078,6.23398355 18.0610953,9.14052927 C19.1353276,9.54465567 20.2047456,10.1624549 21.2420471,11.0187534 L21.9544277,11.6497141 C22.8795438,12.6151406 23.5613073,13.3997899 23.9997183,14.0036621 C24.6585301,13.0990615 25.3442705,12.3181268 26.0480525,11.6527809 L26.7614728,11.0224079 C27.7983377,10.1684539 28.8668902,9.55196699 29.9400144,9.14830232 Z M33.9001345,8.58128131 C39.3457729,9.03085946 43.9994367,14.4512089 43.9994367,21.3325672 C43.9994367,32.3781066 33.9995775,42.9979115 23.9997183,47.9966204 C13.9896868,42.9914012 4,32.3781066 4,21.3325672 C4,14.453203 8.65644172,9.02808199 14.100763,8.57497586 C14.7924214,3.7271121 18.9609539,8.8817842e-16 24,8.8817842e-16 C29.0412306,8.8817842e-16 33.2111927,3.7303443 33.9001345,8.58128131 Z" id="Combined-Shape" fill="#000000"></path>
        </g>
        <g id="icon/shoppingbag" transform="translate(655.000000, 23.000000)">
            <g id="Color_Block/Black-Copy-32" transform="translate(4.000000, 0.000000)">
                <mask id="mask-12" fill="white">
                    <use xlink:href="#path-11"></use>
                </mask>
                <use id="Mask" fill="#000000" fill-rule="nonzero" xlink:href="#path-11"></use>
                <g id="Color_Block/Black" mask="url(#mask-12)" fill="#000000">
                    <g transform="translate(-4.000000, 0.000000)" id="Rectangle">
                        <rect x="0" y="0" width="48" height="48"></rect>
                    </g>
                </g>
            </g>
        </g>
        <g id="hover/shoppingbag" transform="translate(725.000000, 23.000000)" fill-rule="nonzero">
            <rect id="Rectangle-15" fill="#81D8D0" x="6" y="14" width="36" height="32"></rect>
            <path d="M34,12 L44,12 L44,48 L4,48 L4,12 L14,12 L14,10 C14,4.4771525 18.4771525,0 24,0 C29.5228475,0 34,4.4771525 34,10 L34,12 Z M30,12 L30,10 C30,6.6862915 27.3137085,4 24,4 C20.6862915,4 18,6.6862915 18,10 L18,12 L30,12 Z M34,16 L34,20 L30,20 L30,16 L18,16 L18,20 L14,20 L14,16 L8,16 L8,44 L40,44 L40,16 L34,16 Z" id="Combined-Shape" fill="#000000"></path>
        </g>
    </g>
</svg>